<svg xmlns="http://www.w3.org/2000/svg" width="890.3" height="1072" viewBox="0 0 834.7 1005"><path fill="#1a1a1a" stroke="#fff" stroke-linecap="round" stroke-linejoin="round" stroke-width="5" d="M2.5 2.5h800v1000H2.5z"/><path fill="none" stroke="#fff" stroke-linecap="round" stroke-linejoin="round" stroke-width="5" d="M401.4 112.2v150-150zM353.7 83l47.5 177.3L353.7 83zM449 83l-47.4 177.4L449 82.9zM326.2 132.3l75 130-75-130zM476.7 132.4l-75 130 75-130zM271.2 130.5l129.9 130-129.9-130z"/><path fill="none" stroke="#fff" stroke-linecap="round" stroke-linejoin="round" stroke-width="5" d="M531.8 130.7L402 260.6l129.8-129.9zM271.2 187.3l130 75-130-75zM532 187.6l-130 75 130-75z"/><path fill="#1a1a1a" stroke="#1a1a1a" stroke-linecap="round" stroke-linejoin="round" stroke-width="5.5" d="M499.7 287.7a101.5 101.5 0 0 1-123.3 73.4 101.5 101.5 0 0 1-73.5-123.2 101.5 101.5 0 0 1 123-73.6 101.5 101.5 0 0 1 73.9 123"/><path fill="none" stroke="#fff" stroke-linecap="round" stroke-linejoin="round" stroke-width="5" d="M256.6 719.2h-132v-320h265.3c7.6-65.7-15.4-88.2-29.9-133.9-6.4-22.7 22.1-43.1 35.9-15 3.3 6.7-2.5 18.6-9.4 12.7-10-8.6 3.9-29 17.6-28.6 37.1 1 19.5 38.2 11.1 26.6-7.3-10.1 8.6-24.1 12.1-24.8 22.9-4 25.2 17.3 21.3 30-17 44.3-36.1 62.3-28.7 133h264.6v320H554"/><path fill="none" stroke="#fff" stroke-linecap="round" stroke-linejoin="round" stroke-width="5" d="M480 282a80 80 0 0 1-97.1 57.8 80 80 0 0 1-58-97 80 80 0 0 1 97-58 80 80 0 0 1 58.2 96.8"/><path fill="#fff" d="M239 542.6q-.6 0-1-.4-.5-.4-.5-1V536q0-.7.4-1.1.5-.5 1.1-.5h6.3v-36H239q-.6 0-1-.5-.5-.4-.5-1v-5q0-.7.4-1.2.5-.4 1.1-.4h21.4q.6 0 1 .4.5.5.5 1.1v5q0 .7-.4 1.1-.5.5-1.1.5h-6.2v36h6.2q.6 0 1 .5.5.4.5 1v5.1q0 .7-.4 1.1-.5.4-1.1.4H239zM273.4 542.6q-.6 0-1-.4-.5-.4-.5-1v-39q0-.6.4-1 .5-.4 1.1-.4h5.7q.7 0 1.1.4.5.4.5 1v3.5q2-2.8 4.8-4.3 2.8-1.6 6.2-1.6 4.2 0 7.5 2t5.2 5.5 2 7.9v26q0 .6-.5 1t-1.1.4H299q-.7 0-1.1-.4-.5-.4-.5-1v-25q0-3.8-2-5.9-1.9-2-5.5-2-4.3 0-6.9 2.8-2.4 2.7-2.4 7.6v22.4q0 .7-.5 1.1-.4.4-1 .4h-5.8zM333.3 543.6q-4.8 0-8.8-2.3-4-2.4-6.3-6.4t-2.3-8.8v-8.8q0-4.8 2.3-8.8 2.4-4 6.3-6.4 4-2.3 8.8-2.3 3.7 0 7 1.5 3.4 1.5 5.8 4.2.5.5.5 1.2 0 .8-.7 1.4l-3.1 3.2q-.5.5-1.2.5-.6 0-1.2-.7-2.9-2.8-7.1-2.8-3.6 0-6.1 2.5-2.5 2.5-2.5 6.1v9.6q0 3.6 2.5 6.1 2.5 2.5 6.1 2.5 4.2 0 7-2.8.7-.7 1.3-.7.7 0 1.2.5l3.1 3.2q.7.6.7 1.4 0 .7-.5 1.2-2.4 2.7-5.8 4.2-3.3 1.5-7 1.5zM362 542.6q-1.4 0-2.3-.8-1-1-1-2.3v-44.4h-6.6q-.6 0-1-.4-.5-.5-.5-1.1v-5.4q0-.7.4-1.1.5-.5 1.1-.5h12.3q1.3 0 2.2 1 1 .9 1 2.2v44.4h6.6q.7 0 1.1.4.4.4.4 1.1v5.4q0 .7-.4 1.1-.4.4-1 .4h-12.4zM397.7 543.6q-4.1 0-7.5-2-3.3-2-5.2-5.5t-1.9-7.9v-26q0-.6.4-1 .5-.4 1.1-.4h5.7q.7 0 1.1.4.5.4.5 1v25q0 3.8 2 6 2 2 5.5 2 4.3 0 6.8-2.8 2.6-2.8 2.6-7.7v-22.4q0-.7.4-1.1.4-.4 1.1-.4h5.7q.7 0 1.1.4.4.4.4 1v39q0 .6-.4 1t-1.1.4h-5.7q-.7 0-1.1-.4-.4-.4-.4-1v-3.5q-2 2.8-5 4.4-2.7 1.5-6 1.5zM440.8 543.6q-4 0-7.6-1.2t-6.5-3.5q-.4-.3-.5-.7v-1l2.6-4.6q.5-.8 1.4-.8l1 .2q2.7 1.9 5 2.8 2.3.8 4.8.8 3.1 0 4.7-1.1 1.6-1.2 1.6-3.2 0-1.7-1.4-2.6-1.4-1-5.2-2.4l-2.7-1q-3.2-1.3-5.4-2.7-2.3-1.4-4-4-1.5-2.4-1.5-6.1 0-5.8 3.8-9.2 4-3.4 10.3-3.4 3.7 0 7.3 1.2 3.6 1.2 6.3 3.3.3.3.4.8.2.5 0 .9-.6 1.5-2.2 4.6-.4.8-1.4.8-.5 0-1-.3-5-3.3-9.3-3.3-2.5 0-4 1.1-1.4 1-1.4 3t1.6 3.2q1.6 1.2 6 2.9 4.1 1.6 6.4 2.8 2.3 1 4.2 3.5 2 2.5 2 6.3t-2 6.8q-1.9 2.9-5.4 4.5-3.4 1.6-7.9 1.6zM472 495.9q-.7 0-1.1-.5-.5-.4-.5-1v-8q0-.7.5-1.1.4-.5 1-.5h5q.7 0 1.1.5.5.4.5 1v8q0 .7-.5 1.1-.4.5-1 .5h-5zm1.7 46.8q-1.5 0-2.6-1-1-1.2-1-2.7v-30h-6q-.6 0-1-.3-.5-.5-.5-1.1v-5.3q0-.7.4-1.1.5-.4 1.1-.4h11q1.6 0 2.6 1 1.1 1 1.1 2.6v30h6q.6 0 1 .4.5.4.5 1v5.3q0 .7-.5 1.1-.4.5-1 .5h-11zM504.6 543q-1.6 0-2.2-1.4L488.8 503l-.1-.7q0-.7.5-1.1.5-.5 1.3-.5h5.1q.8 0 1.4.4.6.4.8 1.2l9.9 29.4 9.9-29.4q.2-.8.8-1.2.6-.4 1.4-.4h4.7q.8 0 1.3.5.5.4.5 1.1l-.1.7-13.5 38.5q-.3.7-1 1.1-.6.5-1.3.5l-5.8-.1zM549.2 542.6q-4.7 0-8.8-2.3-4-2.3-6.3-6.4-2.3-4-2.3-8.7v-8q0-4.7 2.3-8.7 2.4-4 6.3-6.4 4-2.3 8.8-2.3t8.7 2.3q4 2.4 6.4 6.4 2.3 4 2.3 8.8v4.9q0 1.3-1 2.2-.8 1-2.1 1h-23v.3q0 3.6 2.6 6.1 2.5 2.5 6.1 2.5h11.6q.7 0 1.1.5.5.4.5 1v5.3q0 .7-.5 1.1-.4.4-1 .4h-11.7zm8.6-25.2v-.6q0-3.6-2.5-6.1-2.5-2.6-6-2.6t-6.2 2.6q-2.5 2.5-2.5 6v.7h17.2zM201.4 624q-5.1 0-9.5-2.5-4.3-2.7-6.9-7-2.5-4.5-2.5-9.8v-15.6q0-5.2 2.5-9.6 2.6-4.5 6.9-7 4.4-2.7 9.5-2.7 4.5 0 8.3 1.7 4 1.6 6.6 4.8.5.5.5 1.2t-.6 1.5l-3.2 3.3q-.6.6-1.2.6-.7 0-1.3-.6-3.5-3.9-9-3.9-2.7 0-5 1.5-2.3 1.4-3.7 4t-1.4 5.2v15.6q0 2.9 1.4 5.4t3.6 3.9q2.4 1.5 5 1.5 5.6 0 9-4 .7-.6 1.3-.6.7 0 1.3.6l3.2 3.4q.6.6.6 1.4 0 .6-.4 1.2-2.8 3.2-6.7 4.8-3.8 1.7-8.3 1.7zM241.5 624q-4.7 0-8.7-2.2-4-2.4-6.3-6.3t-2.4-8.6v-9.6q0-4.6 2.4-8.5 2.3-4 6.3-6.2 4-2.4 8.7-2.4 4.8 0 8.8 2.4 4 2.2 6.3 6.2 2.4 4 2.4 8.5v9.6q0 4.6-2.4 8.6-2.3 4-6.3 6.3-4 2.2-8.8 2.2zm0-8.5q3.6 0 6.1-2.4 2.6-2.6 2.6-6.2v-9.6q0-3.6-2.6-6-2.5-2.6-6-2.6t-6.2 2.6q-2.5 2.4-2.5 6v9.6q0 3.6 2.5 6.2 2.6 2.4 6.1 2.4zM270.5 623q-.7 0-1.1-.4-.4-.4-.4-1v-38.9q0-.6.4-1 .4-.5 1-.5h5.8q.7 0 1 .4.5.5.5 1.1v3.8q2.1-3.1 5-4.7 3-1.6 6.1-1.6 4 0 7.1 2 3.2 1.8 5 5.3 2-3.4 5.5-5.3 3.4-2 7.4-2 6.3 0 10 4.3 3.8 4.1 3.8 11v26q0 .7-.4 1.1-.5.5-1.1.5h-5.7q-.7 0-1.1-.5-.5-.4-.5-1v-25q0-3.8-1.7-5.8-1.8-2.2-5-2.2-4.4 0-7 2.9-2.4 2.8-2.4 7.7v22.3q0 .7-.5 1.1-.4.5-1 .5h-5.8q-.6 0-1-.5-.5-.4-.5-1v-25q0-3.8-1.8-5.8-1.7-2.2-5-2.2-4.3 0-6.9 2.9-2.5 2.8-2.5 7.7v22.3q0 .7-.4 1.1-.4.5-1.1.5h-5.7zM339.8 637.2q-.7 0-1.1-.5-.5-.4-.5-1v-53q0-.6.5-1 .4-.5 1-.5h4.8q.7 0 1.1.4.4.5.4 1.1v3.3q2-2.8 4.7-4.3 2.9-1.5 6-1.5 4.4 0 8.1 2.4 3.8 2.2 6 6.1 2.3 3.9 2.3 8.3v10.2q0 4.5-2.2 8.3t-6 6.3q-3.7 2.2-8.1 2.2-2.7 0-5.3-1-2.5-1.2-4.5-3.4v16q0 .7-.5 1.1-.4.5-1 .5h-5.7zm15.9-21.6q3.6 0 6-2.5 2.6-2.5 2.6-6.1v-9.7q0-3.6-2.5-6.1-2.5-2.6-6.1-2.6t-6.2 2.6q-2.5 2.5-2.5 6v9.8q0 3.6 2.5 6.1 2.6 2.5 6.2 2.5zM399.3 624q-4.7 0-8.7-2.2-4-2.4-6.3-6.3t-2.4-8.6v-9.6q0-4.6 2.4-8.5 2.3-4 6.3-6.2 4-2.4 8.7-2.4t8.7 2.4q4 2.2 6.4 6.2t2.3 8.5v9.6q0 4.6-2.3 8.6t-6.4 6.3q-3.9 2.2-8.7 2.2zm0-8.5q3.6 0 6.1-2.4 2.6-2.6 2.6-6.2v-9.6q0-3.6-2.6-6-2.5-2.6-6-2.6t-6.2 2.6q-2.5 2.4-2.5 6v9.6q0 3.6 2.5 6.2 2.6 2.4 6.1 2.4zM428.3 623q-.7 0-1.1-.4-.5-.4-.5-1v-38.9q0-.6.5-1 .4-.5 1-.5h5.8q.6 0 1 .4.5.5.5 1.1v3.4q2-2.7 4.8-4.3 2.9-1.6 6.3-1.6 4.1 0 7.4 2 3.4 2 5.3 5.5t1.9 7.9v26q0 .6-.5 1-.4.5-1 .5h-5.8q-.6 0-1-.5-.5-.4-.5-1v-25q0-3.8-2-5.8-2-2.2-5.5-2.2-4.3 0-6.9 2.9-2.5 2.8-2.5 7.7v22.3q0 .7-.4 1.1-.5.5-1.1.5h-5.7zM488.2 623q-4.8 0-8.8-2.3-4-2.3-6.3-6.3t-2.3-8.8v-7.9q0-4.8 2.3-8.8t6.3-6.3q4-2.4 8.8-2.4t8.7 2.4q4 2.3 6.3 6.3 2.4 4 2.4 8.8v4.9q0 1.3-1 2.3-.9.8-2.2.8h-22.9v.4q0 3.6 2.5 6.1 2.6 2.5 6.2 2.5h11.6q.6 0 1 .5.5.4.5 1v5.3q0 .7-.4 1.1-.5.5-1.1.5h-11.6zm8.6-25.2v-.6q0-3.6-2.6-6-2.5-2.6-6-2.6T482 591q-2.5 2.5-2.5 6v.7h17.3zM516.5 623q-.6 0-1-.4-.5-.4-.5-1v-38.9q0-.6.4-1 .5-.5 1.1-.5h5.7q.7 0 1.1.4.5.5.5 1.1v3.4q2-2.7 4.8-4.3 2.8-1.6 6.2-1.6 4.2 0 7.5 2t5.2 5.5 2 7.9v26q0 .6-.5 1-.4.5-1.1.5h-5.7q-.7 0-1.1-.5-.4-.4-.4-1v-25q0-3.8-2-5.8-2-2.2-5.6-2.2-4.3 0-6.8 2.9-2.5 2.8-2.5 7.7v22.3q0 .7-.5 1.1-.4.5-1 .5h-5.8zM576 623q-5.8 0-9.4-3.4-3.5-3.6-3.5-9.3v-21h-5q-.7 0-1.1-.4-.5-.4-.5-1v-5.2q0-.6.5-1 .4-.5 1-.5h5.1v-8q0-.6.5-1 .4-.5 1-.5h5.8q.6 0 1 .5.5.4.5 1v8h12.4q.6 0 1 .4.5.5.5 1.1v5.2q0 .7-.4 1.1-.5.4-1.1.4h-12.4V610q0 2.2 1.2 3.5 1.4 1.3 3.5 1.3h7.7q.6 0 1 .5.5.5.5 1.1v5.1q0 .7-.4 1.1-.5.5-1.1.5h-8.4zM607.3 624q-4 0-7.7-1.2t-6.5-3.5l-.5-.7.1-1 2.5-4.5q.6-1 1.4-1 .6 0 1 .4 2.7 1.8 5 2.7 2.3.8 4.9.8 3 0 4.6-1.1 1.7-1.2 1.7-3.2 0-1.6-1.4-2.6t-5.3-2.4l-2.6-1q-3.2-1.3-5.5-2.7-2.3-1.4-3.9-4-1.5-2.4-1.5-6.1 0-5.8 3.8-9.2 3.9-3.4 10.2-3.4 3.7 0 7.3 1.2 3.6 1.2 6.3 3.3.4.3.5.8v1l-2.2 4.5q-.5.8-1.4.8-.5 0-1-.3-5.1-3.3-9.4-3.3-2.5 0-4 1.1-1.3 1-1.3 3t1.6 3.2q1.6 1.2 5.9 2.9 4.2 1.6 6.4 2.8 2.4 1 4.3 3.6 2 2.4 2 6.3 0 3.8-2 6.7-2 2.9-5.5 4.5-3.4 1.6-7.8 1.6z"/><g><path fill="#fff" d="M284.4 728l-.2-.2-.2-.3v-19.4q0-.2.2-.3t.2-.1h1.6l.3.1.1.3v8h9.8v-8l.1-.3.3-.1h1.6l.3.1v20l-.3.1h-1.6l-.3-.1-.1-.3v-9.2h-9.8v9.5l-.4.1h-1.6zM309.4 728q-1.7 0-3.2-1t-2.3-2.2q-.8-1.5-.8-3.2v-4.2q0-1.7.8-3.2.9-1.4 2.3-2.3 1.5-.8 3.2-.8t3.2.8 2.3 2.3q.8 1.5.8 3.2v2q0 .4-.3.7-.3.3-.7.3h-9.3v1.3q0 1.1.5 2 .5 1 1.5 1.5.9.6 2 .6h4.5l.1.4v1.6l-.4.1h-4.2zm4-9.7v-1q0-1.1-.5-2-.5-1-1.5-1.5-.9-.6-2-.6t-2 .6q-1 .5-1.5 1.4-.5 1-.5 2v1.1h8zM323 733.5q-.3 0-.4-.2t0-.4l1.6-4.8-5.8-16v-.2l.1-.3.4-.2h1.3q.2 0 .3.2.2 0 .3.2l4.5 13 4.6-13q0-.2.2-.2.1-.2.3-.2h1.3l.4.2v.5l-7.4 21q0 .2-.3.3l-.3.1H323zM340.9 728.3q-1.7 0-3-.8-1.5-.8-2.3-2.2-.8-1.4-.8-3V717q0-1.6.8-3t2.2-2.2q1.4-.8 3-.8 1.3 0 2.4.4 1.1.4 2 1.2v-6.5-.2l.4-.2h1.4q.2 0 .3.2l.1.2v21.6l-.4.1h-1.3l-.3-.1-.1-.3v-1.3q-.8 1-2 1.6-1.1.5-2.4.5zm.2-2.2q1.1 0 2-.5 1-.5 1.5-1.5.6-.9.6-2v-4.8q0-1.1-.6-2-.5-1-1.5-1.5-.9-.6-2-.6t-2 .6q-1 .5-1.5 1.4-.5 1-.5 2v4.9q0 1.1.5 2 .5 1 1.5 1.5.9.5 2 .5zM358.4 728.3q-1.7 0-3.2-.9t-2.2-2.3q-.9-1.4-.9-3.2v-4.5q0-1.7.9-3.2.8-1.4 2.2-2.3 1.5-.8 3.2-.8t3.2.8 2.3 2.3q.8 1.5.8 3.2v4.5q0 1.8-.8 3.2-.9 1.5-2.3 2.3-1.5.9-3.2.9zm0-2.2q1.1 0 2-.5 1-.5 1.5-1.5.6-.9.6-2v-4.8q0-1.1-.6-2-.5-1-1.4-1.5-1-.6-2-.6-1.2 0-2.1.6-1 .5-1.5 1.4-.5 1-.5 2v4.9q0 1.1.5 2 .6 1 1.5 1.5 1 .5 2 .5zM369.6 727.9l-.3-.1-.1-.3v-15.6l.1-.3.3-.2h1.5l.2.2.2.3v1.6q.7-1.2 2-1.9 1.1-.6 2.6-.6 2.5 0 4 1.6 1.6 1.5 1.6 4v10.9l-.1.3h-2.1l-.1-.3V717q0-1.9-1-2.8-1-1-2.6-1-2 0-3.1 1.2t-1.2 3.6v9.5l-.2.3h-1.7zM394.7 728q-.2 0-.3-.2t-.1-.3v-18.8q0-.4.3-.7.3-.3.7-.3h5q1.7 0 3.1.8t2.3 2.3q.9 1.4.9 3.1t-.9 3.2-2.3 2.3q-1.4.8-3.2.8h-3.5v7.3l-.1.3-.3.1h-1.6zm5.4-10q1 0 2-.6 1-.5 1.5-1.4.5-1 .5-2 0-1.1-.5-2-.5-1-1.5-1.5-1-.6-2-.6h-3.4v8h3.4zM413.5 709.2l-.3-.1-.1-.3v-2.6l.1-.3h2l.1.3v2.6l-.1.3h-1.7zm.6 18.7q-.4 0-.7-.3-.3-.3-.3-.7v-13.3h-3l-.3-.1-.2-.3v-1.3q0-.2.2-.3t.2-.2h4.3q.4 0 .7.4.3.3.3.7v13.3h3.3l.1.4v1.6l-.4.1h-4.2zM427.7 728.3q-1.7 0-3.2-.9t-2.2-2.3q-.9-1.4-.9-3.2v-4.5q0-1.7.9-3.2.8-1.4 2.2-2.3 1.5-.8 3.2-.8 1.3 0 2.4.4 1.1.5 2 1.3l.1.4-.1.5-.7.6q-.2.2-.5.2l-.4-.2q-1.2-1-2.8-1-1 0-2 .5t-1.5 1.4q-.5 1-.5 2v4.9q0 1.1.5 2 .6 1 1.5 1.5 1 .5 2 .5 1.6 0 2.8-1l.4-.2.5.1.7.7.1.4-.1.4q-.9.9-2 1.3-1.1.5-2.4.5zM436.9 728q-.2 0-.3-.2-.2-.1-.2-.3v-21.3l.2-.2q0-.2.3-.2h1.4q.2 0 .3.2l.1.2v11.6h1.2l5.7-6q.3-.4.5-.4h2l.2.2.1.2-.1.3-6.5 6.7 6.8 8.5.1.3v.2l-.3.1h-2q-.2 0-.4-.3l-6-7.6h-1.3v7.5l-.1.3-.3.1h-1.4zM457 728q-1.6 0-3-1t-2.4-2.2q-.8-1.5-.8-3.2v-4.2q0-1.7.8-3.2.9-1.4 2.3-2.3 1.5-.8 3.2-.8t3.2.8 2.3 2.3q.8 1.5.8 3.2v2q0 .4-.3.7-.3.3-.8.3H453v1.3q0 1.1.6 2 .5 1 1.4 1.5 1 .6 2 .6h4.6l.1.4v1.3l-.1.3-.3.1h-4.2zm4.1-9.7v-1q0-1.1-.5-2-.5-1-1.5-1.5-1-.6-2-.6-1.1 0-2 .6-1 .5-1.5 1.4-.6 1-.6 2v1.1h8.1zM466.8 728q-.2 0-.3-.2t-.1-.3v-1.3-.3l.4-.1h2.4v-12.3h-2.4l-.3-.1-.1-.3v-1.2-.3l.4-.2h3.6q.4 0 .7.4.3.3.3.7v1.4l1.7-1.3q1-.8 1.7-1 .7-.3 1.4-.3h1.2V713.5l-.3.1h-.7q-.7 0-1.3.3-.7.3-2 1.3l-1.7 1.4v9.3H475.1l.1.4v1.6l-.4.1h-8zM484 709.2l-.4-.1v-2.9-.3h2l.1.3v2.9H483.8zm.5 18.7q-.4 0-.7-.3-.3-.3-.3-.7v-13.3h-3l-.3-.1-.1-.3v-1.3-.3l.4-.2h4.2q.5 0 .8.4.3.3.3.7v13.3h3.3q.2 0 0 .4v1.6l-.3.1h-4.3zM493.3 727.9l-.3-.1-.1-.3v-15.6-.3l.4-.2h1.4q.2 0 .3.2t.1.3v1.6q.8-1.2 2-1.9 1.2-.6 2.7-.6 2.5 0 4 1.6 1.5 1.5 1.5 4V727.7H503.1l-.1-.3V717q0-1.9-1-2.8-1-1-2.6-1-2 0-3.2 1.2t-1.2 3.6v9.8H493.2zM515.6 733.9q-2.7 0-4.5-1-1.7-1-1.7-3 0-1 .5-2 .4-1 1.2-1.5-.7-.5-1-1-.4-.5-.4-1.3 0-.9.5-1.7.5-.8 1.4-1.4-1-.7-1.5-1.8-.6-1.2-.6-2.5 0-1.7.8-3 .8-1.2 2.2-2 1.3-.6 3-.6 1.1 0 2.3.3h5.7q.2 0 .3.2t.1.3v1.6l-.4.1h-3q1 1.3 1 3t-.8 3q-.8 1.3-2.2 2-1.3.7-3 .7-1.1 0-2.3-.4-.6.3-1 .8t-.3 1q0 .6.5 1l1.4.3 2.8.3 1.2.1q1.4.1 2.4.4 1 .2 1.7 1t.7 2.2q0 2.4-2 3.6t-5 1.3zm-.1-13.6q1.7 0 2.7-1 1-1 1-2.6t-1-2.6q-1-1-2.7-1t-2.8 1q-1 1-1 2.6t1 2.6q1 1 2.8 1zm.4 11.6q2 0 3.3-.6t1.3-2q0-.8-.4-1.1-.4-.4-1-.5l-1.8-.2-1.3-.1-2.1-.2-1.2-.2q-.5.4-.9 1-.3.7-.3 1.4 0 1.3 1.2 1.9 1.3.6 3.2.6z"/></g><g><path fill="#fff" d="M145.8 852q-.4 0-.7-.3-.3-.3-.3-.7v-.3l8.5-26q.1-.4.5-.6.3-.3.7-.3h3q.5 0 .8.3.4.2.5.6l8.5 26v.3q0 .4-.3.7-.2.2-.6.2h-2.8q-.5 0-.8-.2l-.5-.7-1.7-5.6h-9.2l-1.7 5.6q-.1.4-.5.7-.3.2-.7.2h-2.8zm13.4-11l-3.2-10.4-3.2 10.4h6.4zM179.8 852.4q-2.5 0-4.7-1.2-2.1-1.3-3.4-3.4-1.2-2.2-1.2-4.7v-4.7q0-2.6 1.2-4.7 1.3-2.1 3.4-3.4 2.2-1.2 4.7-1.2 2 0 3.7.8 1.8.8 3.1 2.2.3.3.3.6 0 .5-.4.8l-1.6 1.7q-.3.3-.7.3-.3 0-.6-.4-1.5-1.5-3.8-1.5-2 0-3.3 1.3-1.3 1.4-1.3 3.3v5.1q0 2 1.3 3.3 1.4 1.3 3.3 1.3 2.3 0 3.8-1.5.3-.4.6-.4.4 0 .7.3l1.6 1.7q.4.3.4.8 0 .3-.3.6-1.3 1.4-3 2.3-1.9.7-3.8.7zM199.8 852.4q-2.6 0-4.7-1.2-2.1-1.3-3.4-3.4-1.2-2.2-1.2-4.7v-4.7q0-2.6 1.2-4.7 1.3-2.1 3.4-3.4 2.1-1.2 4.7-1.2 2 0 3.7.8 1.8.8 3.1 2.2.3.3.3.6 0 .5-.4.8l-1.7 1.7q-.2.3-.6.3-.3 0-.6-.4-1.6-1.5-3.8-1.5-2 0-3.3 1.3-1.3 1.4-1.3 3.3v5.1q0 2 1.3 3.3 1.4 1.3 3.3 1.3 2.2 0 3.8-1.5.3-.4.6-.4.4 0 .6.3l1.7 1.7q.4.3.4.8 0 .3-.3.6-1.3 1.4-3 2.3-1.9.7-3.8.7zM219.7 852q-2.5 0-4.6-1.3-2.1-1.3-3.4-3.4t-1.2-4.7v-4.2q0-2.5 1.2-4.7 1.3-2.1 3.4-3.4 2.1-1.2 4.6-1.2 2.6 0 4.7 1.2 2.1 1.3 3.4 3.4 1.2 2.2 1.2 4.7v2.6q0 .7-.5 1.2-.4.5-1.1.5H215v.2q0 1.9 1.4 3.3 1.3 1.3 3.2 1.3h6.3q.3 0 .5.2.3.3.3.6v2.8q0 .4-.3.6-.2.2-.5.2h-6.3zm4.7-13.5v-.4q0-1.9-1.4-3.2-1.3-1.4-3.3-1.4t-3.2 1.4q-1.4 1.3-1.4 3.2v.4h9.3zM240.5 852.4q-2.1 0-4-.6-2-.7-3.6-1.9-.2-.1-.2-.4v-.5l1.3-2.4q.4-.5.8-.5l.6.2q1.4 1 2.6 1.4 1.2.4 2.6.4 1.6 0 2.5-.5.9-.7.9-1.7t-.8-1.4q-.7-.5-2.8-1.3l-1.4-.6q-1.7-.6-3-1.4-1.1-.7-2-2-.8-1.4-.8-3.4 0-3 2-4.9 2-1.8 5.5-1.8 2 0 3.9.7 1.9.6 3.3 1.7l.3.4v.5L247 835q-.2.4-.7.4l-.6-.2q-2.7-1.7-5-1.7-1.3 0-2 .6-.8.5-.8 1.5t.8 1.8q.9.6 3.2 1.5l3.4 1.5q1.3.6 2.3 2 1 1.2 1 3.3 0 2-1 3.6-1 1.5-2.9 2.4-1.8.8-4.2.8zM259.6 852.4q-2 0-4-.6-2-.7-3.5-1.9-.2-.1-.3-.4v-.5l1.4-2.4q.3-.5.8-.5l.5.2q1.4 1 2.6 1.4 1.3.4 2.6.4 1.7 0 2.5-.5.9-.7.9-1.7t-.7-1.4q-.8-.5-2.9-1.3l-1.4-.6q-1.7-.6-2.9-1.4-1.2-.7-2-2-.9-1.4-.9-3.4 0-3 2-4.9 2.1-1.8 5.5-1.8 2 0 4 .7 1.8.6 3.3 1.7l.2.4v.5l-1.2 2.5q-.2.4-.7.4-.3 0-.5-.2-2.7-1.7-5-1.7-1.4 0-2.2.6-.7.5-.7 1.5t.9 1.8q.8.6 3.1 1.5l3.5 1.5q1.2.6 2.2 2 1 1.2 1 3.3 0 2-1 3.6-1 1.5-2.9 2.4-1.8.8-4.2.8zM276.3 827q-.4 0-.6-.3-.3-.2-.3-.6V822q0-.4.3-.6.2-.2.6-.2h2.6q.4 0 .6.2.2.2.2.6v4.2q0 .4-.2.6-.2.2-.6.2h-2.6zm.9 25q-.8 0-1.4-.6-.6-.6-.6-1.4v-16h-3.1q-.4 0-.6-.2t-.2-.6v-2.8q0-.4.2-.6.2-.2.6-.2h5.9q.8 0 1.3.5.6.6.6 1.4v16h3.2l.6.2.2.6v2.8q0 .4-.2.6l-.6.2h-6zM298 852.4q-1.7 0-3.2-.7-1.5-.8-2.5-2.3v1.7q0 .4-.2.6l-.6.2H289q-.4 0-.6-.2-.3-.2-.3-.6v-28.3q0-.3.3-.5.2-.3.6-.3h3q.4 0 .6.3.2.2.2.5v8.8q1-1.3 2.4-1.9 1.4-.6 2.9-.6 2.3 0 4.3 1.2t3.2 3.3q1.2 2 1.2 4.4v5.5q0 2.3-1.3 4.4-1.1 2-3.2 3.3-2 1.2-4.3 1.2zm-.5-4.5q1.9 0 3.2-1.3 1.4-1.3 1.4-3.3v-5.2q0-1.9-1.4-3.2-1.3-1.4-3.2-1.4t-3.3 1.4q-1.4 1.3-1.4 3.2v5.2q0 2 1.4 3.3 1.4 1.3 3.3 1.3zM315 852q-.7 0-1.2-.5t-.5-1.2v-23.7h-3.5q-.4 0-.6-.3-.2-.2-.2-.6V823q0-.4.2-.6.2-.3.6-.3h6.5q.8 0 1.2.5.5.5.5 1.2v23.7h3.6l.6.2.2.6v3q0 .3-.2.5l-.6.2H315zM334.8 852q-2.5 0-4.7-1.3-2-1.3-3.3-3.4t-1.3-4.7v-4.2q0-2.5 1.3-4.7 1.2-2.1 3.3-3.4 2.2-1.2 4.7-1.2t4.7 1.2q2.1 1.3 3.4 3.4 1.2 2.2 1.2 4.7v2.6q0 .7-.5 1.2t-1.2.5h-12.2v.2q0 1.9 1.3 3.3 1.4 1.3 3.3 1.3h6.2q.4 0 .6.2l.2.6v2.8q0 .4-.2.6-.2.2-.6.2h-6.2zm4.6-13.5v-.4q0-1.9-1.3-3.2-1.4-1.4-3.3-1.4t-3.3 1.4q-1.3 1.3-1.3 3.2v.4h9.2zM364.8 852.2q-.9 0-1.2-.9l-6.8-20.5v-.3q0-.4.2-.7.3-.2.7-.2h2.7q.4 0 .7.2.4.2.5.6l4.8 15.8 4.4-15.8q0-.4.4-.6.3-.2.7-.2h2.8q.4 0 .7.2.3.2.4.6l4.7 15.8 4.5-15.8q.1-.4.4-.6l.8-.2h2.5q.5 0 .7.2.3.3.3.7v.3l-6.5 20.5q-.1.4-.5.7-.3.2-.7.2h-3.1q-.4 0-.8-.3-.3-.2-.4-.6l-4.4-14.7-4.2 14.7q0 .4-.4.7l-.8.2h-3zM402 852q-2.6 0-4.8-1.3-2-1.3-3.3-3.4t-1.3-4.7v-4.2q0-2.5 1.3-4.7 1.2-2.1 3.3-3.4 2.2-1.2 4.7-1.2 2.6 0 4.7 1.2 2.1 1.3 3.4 3.4 1.2 2.2 1.2 4.7v2.6q0 .7-.5 1.2t-1.2.5h-12.2v.2q0 1.9 1.3 3.3 1.4 1.3 3.3 1.3h6.2q.4 0 .6.2l.2.6v2.8q0 .4-.2.6-.2.2-.6.2H402zm4.5-13.5v-.4q0-1.9-1.3-3.2-1.4-1.4-3.3-1.4t-3.3 1.4q-1.3 1.3-1.3 3.2v.4h9.2zM426.2 852.4q-1.8 0-3.3-.7-1.5-.8-2.5-2.3v1.7q0 .4-.2.6l-.6.2h-2.5q-.4 0-.6-.2-.3-.2-.3-.6v-28.3q0-.3.3-.5t.6-.3h3q.4 0 .6.3t.2.5v8.8q1-1.3 2.4-1.9 1.4-.6 2.9-.6 2.3 0 4.3 1.2t3.2 3.3q1.2 2 1.2 4.4v5.5q0 2.3-1.2 4.4-1.2 2-3.2 3.3-2 1.2-4.3 1.2zm-.6-4.5q1.9 0 3.2-1.3 1.4-1.3 1.4-3.3v-5.2q0-1.9-1.4-3.2-1.3-1.4-3.2-1.4t-3.3 1.4q-1.4 1.3-1.4 3.2v5.2q0 2 1.4 3.3 1.4 1.3 3.3 1.3zM453.5 827q-.4 0-.6-.3-.3-.2-.3-.6V822q0-.4.3-.6.2-.2.6-.2h2.6q.4 0 .6.2.2.2.2.6v4.2q0 .4-.2.6-.2.2-.6.2h-2.6zm.9 25q-.8 0-1.4-.6-.6-.6-.6-1.4v-16h-3.1q-.4 0-.6-.2t-.2-.6v-2.8q0-.4.2-.6.2-.2.6-.2h5.9q.8 0 1.3.5.6.6.6 1.4v16h3.2l.6.2.2.6v2.8q0 .4-.2.6l-.6.2h-6zM466.2 852q-.4 0-.6-.3-.3-.2-.3-.6v-20.7q0-.4.3-.6.2-.2.6-.2h3q.4 0 .6.2.2.2.2.6v1.8q1.1-1.5 2.6-2.3 1.5-.8 3.3-.8 2.3 0 4 1 1.8 1 2.8 3t1 4.2V851q0 .4-.2.6-.2.2-.6.2h-3q-.4 0-.6-.2-.2-.2-.2-.6v-13.3q0-2-1.1-3.1-1-1.2-3-1.2-2.3 0-3.6 1.6-1.4 1.5-1.4 4v12q0 .4-.2.6-.2.2-.6.2h-3zM497.9 852q-3 0-5-2-1.9-1.8-1.9-4.9V834h-2.6q-.4 0-.6-.2-.3-.2-.3-.6v-2.7q0-.4.3-.6.2-.2.6-.2h2.6v-4.2q0-.4.3-.6.2-.3.6-.3h3q.4 0 .6.3.2.2.2.6v4.2h6.6q.4 0 .6.2.3.2.3.6v2.8q0 .3-.3.5-.2.3-.6.3h-6.6v11q0 1.1.7 1.8t1.8.7h4.1q.4 0 .6.3.3.2.3.6v2.7q0 .4-.3.6-.2.2-.6.2H498zM516 852q-2.5 0-4.6-1.3-2.1-1.3-3.4-3.4t-1.2-4.7v-4.2q0-2.5 1.2-4.7 1.3-2.1 3.4-3.4 2.1-1.2 4.7-1.2 2.5 0 4.6 1.2 2.2 1.3 3.4 3.4 1.3 2.2 1.3 4.7v2.6q0 .7-.6 1.2-.4.5-1.1.5h-12.2v.2q0 1.9 1.3 3.3 1.3 1.3 3.3 1.3h6.2l.6.2.2.6v2.8q0 .4-.2.6l-.6.2H516zm4.7-13.5v-.4q0-1.9-1.4-3.2-1.3-1.4-3.2-1.4t-3.3 1.4q-1.3 1.3-1.3 3.2v.4h9.2zM530 852q-.3 0-.5-.3-.3-.2-.3-.6v-2.9q0-.3.3-.6t.5-.2h3V834h-3.3q-.4 0-.6-.3-.3-.2-.3-.5v-2.8q0-.4.3-.6.2-.2.6-.2h6q.7 0 1.2.5.5.4.5 1.1v1.5l2-1.7q1.3-1 2.1-1.3.9-.4 2-.4h1.3q.3 0 .5.2.3.3.3.6v3q0 .4-.3.6-.2.2-.5.2h-1q-1 0-1.8.4-.8.3-2.3 1.6l-2.1 1.7v9.8h3.8q.4 0 .6.2t.3.6v3q0 .3-.3.5-.2.2-.6.2H530zM553.5 852q-.4 0-.6-.3-.2-.2-.2-.6V834h-3.1q-.4 0-.6-.2-.2-.2-.2-.6v-2.7q0-.4.2-.6.2-.2.6-.2h3v-1.3q0-3 2-4.9 1.9-1.9 4.9-1.9h3.7q.3 0 .6.3.2.2.2.5v2.7q0 .4-.2.6l-.6.2h-3.7q-1 0-1.6.6-.5.6-.5 1.6v1.6h5l.6.2q.2.2.2.6v2.7q0 .4-.2.6l-.6.2h-5v17.2q0 .4-.3.6-.2.2-.6.2h-3zM573.6 852.4q-3.3 0-5.4-1.8-2-1.9-2-4.8 0-2.7 1.9-4.5 1.8-1.8 5.2-2.3l1.7-.3 3.3-.4q1.4-.3 1.4-1.7t-1.2-2.3q-1.1-.9-3-.9-3.1 0-4.5 2.3-.4.5-.8.5l-.5-.1-2.2-1.5q-.3-.2-.3-.7v-.3q1.2-2.2 3.4-3.3 2.2-1.2 5-1.2 2.6 0 4.6 1 2 .9 3 2.7 1 1.8 1 4.1v14.2q0 .4-.2.6-.2.2-.6.2h-2.6q-.4 0-.6-.2-.2-.2-.2-.6v-1.5q-2.7 2.8-6.4 2.8zm.3-4.1q1.5 0 3-.8t2.1-2q.9-1.3.9-2.7v-.8l-3 .4-3 .4q-3.3.6-3.3 2.8 0 1.2 1 2 .8.7 2.3.7zM598.6 852.4q-2.6 0-4.7-1.2-2.1-1.3-3.4-3.4-1.2-2.2-1.2-4.7v-4.7q0-2.6 1.2-4.7 1.3-2.1 3.4-3.4 2.1-1.2 4.7-1.2 2 0 3.7.8 1.8.8 3.1 2.2.3.3.3.6 0 .5-.4.8l-1.7 1.7q-.2.3-.6.3t-.6-.4q-1.6-1.5-3.8-1.5-2 0-3.3 1.3-1.3 1.4-1.3 3.3v5.1q0 2 1.3 3.3 1.4 1.3 3.3 1.3 2.2 0 3.8-1.5.3-.4.6-.4t.6.3l1.7 1.7q.4.3.4.8 0 .3-.3.6-1.3 1.4-3 2.3-1.9.7-3.8.7zM618.5 852q-2.5 0-4.6-1.3-2.1-1.3-3.4-3.4t-1.2-4.7v-4.2q0-2.5 1.2-4.7 1.3-2.1 3.4-3.4 2.1-1.2 4.7-1.2t4.6 1.2q2.1 1.3 3.4 3.4 1.2 2.2 1.2 4.7v2.6q0 .7-.5 1.2-.4.5-1.1.5h-12.3v.2q0 1.9 1.4 3.3 1.3 1.3 3.2 1.3h6.3q.3 0 .5.2.3.3.3.6v2.8q0 .4-.3.6-.2.2-.5.2h-6.3zm4.7-13.5v-.4q0-1.9-1.4-3.2-1.3-1.4-3.2-1.4t-3.3 1.4q-1.4 1.3-1.4 3.2v.4h9.3zM639.3 852.4q-2.1 0-4-.6-2-.7-3.6-1.9-.2-.1-.2-.4v-.5l1.3-2.4q.4-.5.8-.5l.6.2q1.4 1 2.6 1.4 1.2.4 2.6.4 1.6 0 2.5-.5.9-.7.9-1.7t-.8-1.4q-.7-.5-2.8-1.3l-1.4-.6q-1.7-.6-3-1.4-1.1-.7-2-2-.8-1.4-.8-3.4 0-3 2-4.9 2-1.8 5.5-1.8 2 0 3.9.7 1.9.6 3.3 1.7l.3.4v.5l-1.2 2.5q-.2.4-.7.4l-.6-.2q-2.7-1.7-5-1.7-1.3 0-2 .6-.8.5-.8 1.5t.8 1.8q.9.6 3.2 1.5l3.4 1.5q1.3.6 2.3 2 1 1.2 1 3.3 0 2-1 3.6-1 1.5-2.9 2.4-1.8.8-4.2.8zM651.4 856.5q-.4 0-.6-.3t-.2-.7l2.3-7.6q0-.3.3-.5.3-.3.7-.3h3.8q.4 0 .6.3.3.2.3.5l-.1.5-4.6 8.1h-2.5zM268.7 902.4q-.4 0-.6-.2l-.2-.6v-28.3l.2-.6q.2-.2.6-.2h2.5q.4 0 .6.2l.2.6v1.8q1-1.5 2.5-2.3 1.5-.8 3.3-.8 2.3 0 4.3 1.3 2 1.2 3.2 3.2 1.2 2.1 1.2 4.5v5.4q0 2.4-1.2 4.5t-3.2 3.3q-2 1.2-4.3 1.2-1.5 0-2.8-.6-1.4-.6-2.5-1.8v8.6l-.2.6q-.2.2-.6.2h-3zm8.5-11.5q1.9 0 3.2-1.3 1.4-1.4 1.4-3.3V881q0-2-1.4-3.2-1.3-1.4-3.2-1.4t-3.3 1.4q-1.4 1.3-1.4 3.2v5.2q0 2 1.4 3.3 1.4 1.3 3.3 1.3zM295 869.9q-.4 0-.7-.2l-.2-.6v-4.3l.2-.6.6-.2h2.7l.6.2.2.6v4.3l-.2.6-.6.2h-2.7zm.9 25q-.9 0-1.4-.6-.6-.5-.6-1.4v-16h-3.1q-.4 0-.6-.2-.3-.2-.3-.6v-2.8q0-.3.3-.6.2-.2.6-.2h5.8q.9 0 1.4.6.6.5.6 1.4v16h3.2q.3 0 .5.2.3.2.3.6v2.8q0 .3-.3.5-.2.3-.5.3h-6zM315 894.9q-2.6 0-4.8-1.3-2-1.2-3.3-3.4t-1.3-4.7v-4.2q0-2.5 1.3-4.7 1.2-2.1 3.3-3.4 2.2-1.2 4.7-1.2t4.7 1.2q2.1 1.3 3.4 3.4 1.2 2.2 1.2 4.7v2.6q0 .7-.5 1.3-.5.4-1.2.4h-12.2v.2q0 2 1.3 3.3 1.4 1.3 3.3 1.3h6.2q.4 0 .6.3t.2.5v2.9q0 .3-.2.5-.2.3-.6.3H315zm4.5-13.5v-.3q0-2-1.3-3.3-1.4-1.3-3.3-1.3t-3.3 1.3q-1.3 1.3-1.3 3.3v.3h9.2zM338 895.4q-2.6 0-4.7-1.3-2.2-1.2-3.4-3.4-1.3-2.1-1.3-4.6v-4.8q0-2.5 1.3-4.7 1.2-2.1 3.4-3.3 2.1-1.3 4.6-1.3 2 0 3.8.8 1.8.8 3 2.2.3.3.3.7 0 .4-.3.8L343 878q-.3.3-.6.3t-.7-.3q-1.5-1.6-3.8-1.6-1.9 0-3.2 1.4-1.4 1.3-1.4 3.2v5.2q0 1.9 1.4 3.2 1.3 1.4 3.2 1.4 2.3 0 3.8-1.6.3-.3.7-.3t.6.3l1.7 1.6q.3.4.3.8t-.2.6q-1.3 1.5-3.1 2.3-1.8.8-3.8.8zM358 894.9q-2.6 0-4.8-1.3-2-1.2-3.3-3.4t-1.3-4.7v-4.2q0-2.5 1.3-4.7 1.2-2.1 3.3-3.4 2.2-1.2 4.7-1.2 2.6 0 4.7 1.2 2.1 1.3 3.4 3.4 1.2 2.2 1.2 4.7v2.6q0 .7-.5 1.3-.5.4-1.2.4h-12.2v.2q0 2 1.3 3.3 1.4 1.3 3.3 1.3h6.2q.4 0 .6.3t.2.5v2.9q0 .3-.2.5-.2.3-.6.3H358zm4.5-13.5v-.3q0-2-1.3-3.3-1.4-1.3-3.3-1.3t-3.3 1.3q-1.3 1.3-1.3 3.3v.3h9.2zM392 895.4q-1.8 0-3.3-.8-1.5-.7-2.5-2.2v1.7q0 .3-.3.5-.2.3-.5.3h-2.6q-.3 0-.6-.3-.2-.2-.2-.5v-28.3q0-.4.2-.6l.6-.2h3q.4 0 .7.2.2.2.2.6v8.7q1-1.2 2.3-1.8 1.4-.7 3-.7 2.3 0 4.3 1.3 2 1.2 3.2 3.2 1.1 2.1 1.1 4.5v5.4q0 2.4-1.2 4.5-1.2 2-3.2 3.3-2 1.2-4.3 1.2zm-.7-4.5q2 0 3.3-1.3 1.3-1.4 1.3-3.3V881q0-2-1.3-3.2-1.4-1.4-3.3-1.4t-3.2 1.4q-1.4 1.3-1.4 3.2v5.2q0 1.9 1.4 3.3 1.3 1.3 3.2 1.3zM410 902.4q-.5 0-.7-.3-.2-.3 0-.8l2-5.8-7.7-21.7v-.4q0-.4.2-.6.3-.3.7-.3h2.7q.4 0 .7.2.4.3.5.7l5.3 15.5 5.3-15.5q0-.4.4-.7.3-.2.7-.2h2.6q.4 0 .7.3.2.2.2.6v.4l-9.8 27.8-.5.6q-.3.3-.8.2H410zM438.5 902.4q-.4 0-.6-.2t-.2-.6v-28.3l.2-.6q.2-.2.6-.2h2.5q.4 0 .6.2l.2.6v1.8q1-1.5 2.5-2.3 1.6-.8 3.3-.8 2.3 0 4.3 1.3 2 1.2 3.2 3.2 1.2 2.1 1.2 4.5v5.4q0 2.4-1.2 4.5t-3.1 3.3q-2 1.2-4.4 1.2-1.5 0-2.8-.6-1.4-.6-2.4-1.8v8.6q0 .3-.3.6t-.6.2h-3zM447 891q2 0 3.2-1.3 1.4-1.4 1.4-3.3V881q0-2-1.4-3.2-1.3-1.4-3.2-1.4t-3.3 1.4q-1.3 1.3-1.3 3.2v5.2q0 2 1.3 3.3 1.4 1.3 3.3 1.3zM464.7 869.9q-.3 0-.5-.2-.3-.3-.3-.6v-4.3q0-.3.3-.6.2-.2.5-.2h2.7l.6.2.2.6v4.3l-.2.6-.6.2h-2.7zm1 25q-.8 0-1.4-.6-.6-.5-.6-1.4v-16h-3.1q-.4 0-.6-.2-.3-.2-.3-.6v-2.8q0-.3.3-.6.2-.2.6-.2h5.9q.8 0 1.3.6.6.5.6 1.4v16h3.2l.6.2q.3.2.2.6v2.8q0 .3-.2.5-.3.3-.6.3h-6zM484.7 894.9q-2.5 0-4.7-1.3-2-1.2-3.3-3.4t-1.3-4.7v-4.2q0-2.5 1.3-4.7 1.2-2.1 3.3-3.4 2.2-1.2 4.7-1.2 2.6 0 4.7 1.2 2.1 1.3 3.4 3.4 1.2 2.2 1.2 4.7v2.6q0 .7-.5 1.3-.5.4-1.2.4h-12.2v.2q0 2 1.3 3.3 1.4 1.3 3.3 1.3h6.2q.4 0 .6.3t.3.5v2.9q0 .3-.3.5-.2.3-.6.3h-6.2zm4.6-13.5v-.3q0-2-1.3-3.3-1.4-1.3-3.3-1.3t-3.3 1.3q-1.3 1.3-1.3 3.3v.3h9.2zM507.8 895.4q-2.6 0-4.7-1.3-2.1-1.2-3.4-3.4-1.2-2.1-1.2-4.6v-4.8q0-2.5 1.2-4.7 1.3-2.1 3.4-3.3 2.1-1.3 4.7-1.3 1.9 0 3.7.8 1.8.8 3 2.2.4.3.4.7 0 .4-.4.8l-1.7 1.6q-.2.3-.6.3t-.7-.3q-1.5-1.6-3.7-1.6-2 0-3.3 1.4-1.4 1.3-1.4 3.2v5.2q0 1.9 1.4 3.2 1.3 1.4 3.3 1.4 2.2 0 3.7-1.6.4-.3.7-.3t.6.3l1.7 1.6q.4.4.4.8t-.3.6q-1.3 1.5-3.1 2.3-1.8.8-3.7.8zM527.7 894.9q-2.5 0-4.7-1.3-2-1.2-3.3-3.4t-1.3-4.7v-4.2q0-2.5 1.3-4.7 1.2-2.1 3.3-3.4 2.2-1.2 4.7-1.2 2.6 0 4.7 1.2 2.1 1.3 3.4 3.4 1.2 2.2 1.2 4.7v2.6q0 .7-.5 1.3-.5.4-1.2.4h-12.2v.2q0 2 1.3 3.3 1.4 1.3 3.3 1.3h6.2q.4 0 .6.3t.3.5v2.9q0 .3-.3.5-.2.3-.6.3h-6.2zm4.6-13.5v-.3q0-2-1.3-3.3-1.4-1.3-3.3-1.3t-3.3 1.3q-1.3 1.3-1.3 3.3v.3h9.2z"/></g><path fill="#1a1a1a" fill-rule="evenodd" stroke="#fff" stroke-linejoin="round" stroke-width="5" d="M665.3 538l19.4 29 19.3-29z"/><path fill="none" stroke="#fff" stroke-linecap="round" stroke-width="5" d="M665.7 566.5h38.4"/><path fill="#1a1a1a" fill-rule="evenodd" stroke="#fff" stroke-linejoin="round" stroke-width="5" d="M105.7 567l19.3-29 19.4 29z"/><path fill="none" stroke="#fff" stroke-linecap="round" stroke-width="5" d="M106 538.5h38.5"/><path fill="none" stroke="#fff" stroke-linecap="round" stroke-width="3" d="M813.2 6.9v986.5M823.2 6.9v986.5M833.2 6.9v986.5"/></svg>