<svg version="1.0" xmlns="http://www.w3.org/2000/svg" width="64" height="64" viewBox="0 0 600 600" preserveAspectRatio="xMidYMid meet">
 <g fill="#ffffff">
  <path d="M0 300 l0 -300 300 0 300 0 0 300 0 300 -300 0 -300 0 0 -300z m311.55 254.70 l11.80 -11.80 -4 -5.85 c-2.20 -3.20 -7.30 -10.65 -11.35 -16.55 -4.05 -5.90 -9.90 -14.45 -13 -19 -3.10 -4.55 -8.75 -12.75 -12.50 -18.25 -3.75 -5.50 -12.30 -18 -19 -27.75 -6.70 -9.75 -15.30 -22.35 -19.15 -28 -3.85 -5.65 -12.20 -17.80 -18.50 -27 -6.35 -9.20 -13.85 -20.15 -16.65 -24.30 l-5.15 -7.55 -2.65 0.75 c-2.90 0.80 -13.25 1.10 -16.70 0.50 l-2.10 -0.40 -6.75 10.65 c-3.70 5.80 -9.25 14.55 -12.35 19.35 -3.10 4.80 -7.10 11.10 -8.85 13.95 l-3.30 5.15 73.95 73.95 c40.70 40.70 74.05 73.95 74.20 73.95 0.15 0 5.55 -5.30 12.05 -11.80z m37.20 -59.45 c2.35 -14.60 5.50 -34.25 7.05 -43.75 1.50 -9.50 4.10 -25.55 5.75 -35.70 1.60 -10.15 2.90 -18.50 2.85 -18.55 -0.10 -0.05 -1.15 -0.65 -2.40 -1.35 -4.40 -2.55 -8.85 -8.05 -10.45 -13.05 -0.40 -1.20 -1 -1.95 -1.70 -2.10 -0.60 -0.15 -13.45 -2.85 -28.60 -6 -15.10 -3.15 -43.75 -9.15 -63.65 -13.35 -22.30 -4.65 -36.30 -7.40 -36.60 -7.10 -0.30 0.30 3.35 6 9.50 14.95 5.45 8 11.45 16.75 13.35 19.50 3.20 4.70 15.10 22.15 21.90 32 2.90 4.25 16.70 24.40 39.20 57.25 5.55 8.10 15.45 22.55 21.95 32.10 l11.85 17.35 2.85 -2.85 2.90 -2.85 4.25 -26.50z m113.10 -91.05 c-0.05 -0.05 -11 -2.40 -24.35 -5.15 -13.35 -2.80 -28.10 -5.90 -32.85 -6.90 l-8.60 -1.80 -2.60 2.35 c-1.45 1.30 -3.80 2.95 -5.20 3.65 -1.35 0.70 -2.55 1.30 -2.60 1.35 -0.15 0.10 -5.35 32.40 -11.90 73.55 -2.05 12.95 -3.85 23.95 -4 24.50 -0.10 0.50 20.60 -19.85 46 -45.25 25.40 -25.40 46.15 -46.25 46.10 -46.30z m-319.50 -11.70 c3.55 -5.65 10 -15.85 14.35 -22.65 4.35 -6.85 7.80 -12.55 7.60 -12.70 -0.15 -0.15 -9.80 3.80 -21.40 8.85 -11.65 5 -23.35 10.05 -26 11.20 l-4.85 2.05 11.80 11.85 c6.55 6.55 11.90 11.80 11.95 11.75 0 -0.05 2.95 -4.70 6.55 -10.35z m373.35 -41.95 c19.75 -19.75 35.70 -36.05 35.50 -36.20 -0.25 -0.10 -24.50 -10.50 -53.95 -23.10 -29.40 -12.55 -58.45 -24.95 -64.45 -27.55 l-10.95 -4.65 -2.45 2.20 c-2.80 2.50 -7.70 5.15 -10.50 5.60 -1.05 0.15 -2.05 0.50 -2.20 0.75 -0.35 0.55 -2.05 10.90 -11.65 70.75 l-2.40 15.15 1.80 1.95 c2.85 3.10 5 7.10 5.90 10.95 l0.85 3.55 3.30 0.75 c1.80 0.40 12.05 2.55 22.75 4.80 10.75 2.20 26.70 5.55 35.50 7.45 8.80 1.90 16.25 3.45 16.50 3.50 0.30 0.05 16.65 -16.10 36.45 -35.90z m-390.10 -0.55 c13.65 -5.90 24.75 -10.80 24.70 -10.90 -0.15 -0.10 -14.60 -3.15 -85.10 -17.85 -7.20 -1.50 -13.30 -2.75 -13.50 -2.75 -0.25 0 9.55 10 21.75 22.20 l22.20 22.20 2.55 -1.10 c1.40 -0.60 13.75 -5.95 27.40 -11.80z m229.35 7.75 c3.25 -4.55 11.30 -9.20 15.90 -9.25 0.60 0 1.20 -0.20 1.35 -0.45 0.25 -0.35 1.55 -8.25 4.80 -28.55 5.25 -33 8.55 -53.50 8.75 -54.75 0.20 -1.15 0 -1.65 -0.70 -2.10 -0.85 -0.50 -1.70 -0.30 -5.40 1.30 -4.85 2.15 -133.05 57.35 -146.15 62.95 -7.70 3.30 -8.25 3.60 -8.40 4.95 l-0.15 1.40 25.15 5.20 c47.40 9.80 80.60 16.80 94.65 19.85 4.15 0.90 7.75 1.65 8.05 1.65 0.30 0.05 1.25 -0.95 2.15 -2.20z m-190.30 -40.90 l2 -2.85 -1.50 -2.15 c-0.85 -1.15 -4.75 -6.80 -8.70 -12.60 -12.05 -17.70 -15.70 -23 -30.50 -44.60 -7.90 -11.50 -15.40 -22.50 -16.75 -24.50 -1.35 -2 -2.55 -3.60 -2.70 -3.65 -0.45 0 -67.70 67.45 -67.45 67.70 0.10 0.10 5.70 1.30 12.45 2.70 58.80 12.30 102.60 21.45 106.25 22.35 1.65 0.35 3.40 0.65 3.95 0.60 0.50 -0.05 1.80 -1.40 2.95 -3z m73.10 -15.10 c2.60 -1.20 29.45 -12.75 69.50 -30 6.60 -2.85 19.90 -8.60 29.50 -12.75 9.65 -4.15 22.30 -9.60 28.15 -12.10 l10.60 -4.55 0 -1.60 0 -1.60 -35.15 -15.05 -35.20 -15.05 -3.45 3.40 c-5.60 5.50 -11.95 8.05 -20.10 8.05 l-3.85 0.05 -4.55 7.10 c-21.95 34.25 -50.55 79.15 -51.10 80.20 -0.60 1.05 2.90 -0.30 15.65 -6.10z m-29.20 -13 c5.25 -8.25 14.35 -22.55 20.25 -31.75 5.85 -9.20 14.90 -23.40 20.10 -31.50 l9.40 -14.70 -1.70 -2.55 c-0.95 -1.35 -2.15 -3.45 -2.65 -4.65 -1.55 -3.60 -2.60 -9.90 -2.30 -13.85 l0.25 -3.55 -9.55 -4.10 c-5.30 -2.20 -21.90 -9.30 -36.95 -15.75 l-27.30 -11.70 -28.10 28.10 -28.05 28.05 31.85 46.50 31.80 46.45 6.70 0 6.65 0 9.60 -15z m314.75 -31.70 l-38.45 -38.45 -3.80 1.65 c-2.10 0.90 -13 5.60 -24.25 10.45 -11.25 4.90 -21 9.15 -21.65 9.50 -1.10 0.55 1.80 1.90 35.70 16.40 20.30 8.70 48.95 21 63.65 27.35 14.70 6.35 26.85 11.50 27 11.55 0.15 0 -17.05 -17.30 -38.20 -38.45z m-85.70 -41.45 c9.45 -4.10 20.25 -8.75 24.05 -10.40 l6.85 -2.95 -22.10 -22.10 c-19.60 -19.60 -22.20 -22 -22.50 -21.05 -0.15 0.65 -2.40 14.30 -4.95 30.35 -4.40 27.65 -4.60 29.25 -3.75 29.75 0.50 0.30 1.85 1.25 3 2.15 1.10 0.90 2.10 1.60 2.15 1.60 0.05 0.05 7.85 -3.30 17.25 -7.35z m-49.40 3.45 c0.85 -0.50 2.40 -1.20 3.45 -1.55 1 -0.30 1.85 -0.65 1.85 -0.75 0 -0.20 11.35 -70.70 11.95 -74.25 l0.50 -2.75 -23.40 -23.40 -23.40 -23.45 -11.40 17.95 c-23.75 37.20 -27.60 43.20 -34.35 53.75 l-6.95 10.90 1.30 3.30 c0.70 1.80 1.55 4.60 1.80 6.15 l0.55 2.90 18.05 7.70 c9.95 4.25 26.75 11.45 37.35 16 10.60 4.60 19.65 8.35 20.20 8.40 0.50 0.05 1.65 -0.35 2.50 -0.90z m-121.85 -53.55 c5.10 -2.65 10.05 -3.70 15.90 -3.35 2.50 0.15 4.95 0.45 5.50 0.60 0.90 0.25 2.10 -1.35 9.10 -12.35 4.40 -6.95 10.35 -16.25 13.15 -20.65 2.85 -4.40 8 -12.50 11.50 -18 3.50 -5.50 9.90 -15.50 14.20 -22.25 l7.80 -12.25 -22 -22 -22 -22 -52.55 52.55 -52.50 52.50 33.90 14.55 c18.65 8 33.95 14.60 34 14.60 0.05 0.05 1.85 -0.85 4 -1.95z"/>
 </g>
 <g fill="#25c7b7">
  <path d="M223.90 494.15 l-75.35 -75.40 0.90 -1.25 c0.55 -0.70 2.80 -4.15 5.05 -7.75 4.45 -6.95 5.45 -8.55 18.20 -28.50 4.55 -7.15 8.35 -13.20 8.45 -13.45 0.10 -0.30 1.50 -0.20 3.40 0.25 4.40 0.95 11.45 0.85 15.45 -0.25 5.20 -1.45 4.75 -1.75 9.50 5.20 2.35 3.45 11.45 16.70 20.20 29.50 8.80 12.80 19.05 27.75 22.80 33.25 3.75 5.50 12 17.55 18.35 26.75 6.30 9.20 13.45 19.70 15.90 23.25 2.45 3.60 6.90 10.10 9.95 14.50 3 4.40 8.55 12.50 12.30 18 3.75 5.50 9.10 13.30 11.90 17.40 2.80 4.05 5.10 7.40 5.10 7.50 0 0.25 -26 26.10 -26.40 26.25 -0.20 0.05 -34.25 -33.80 -75.70 -75.25z"/>
  <path d="M337.45 529.40 c-0.35 -0.65 -6.25 -9.35 -13.10 -19.40 -6.90 -10.05 -16.90 -24.65 -22.25 -32.50 -5.40 -7.85 -15.10 -22 -21.60 -31.50 -6.50 -9.50 -13.95 -20.40 -16.60 -24.25 -2.65 -3.85 -7.90 -11.55 -11.70 -17.10 -3.85 -5.55 -8.45 -12.30 -10.30 -15 -1.80 -2.70 -7.85 -11.50 -13.35 -19.55 -5.55 -8.05 -10.05 -14.85 -10.05 -15.10 0 -1.15 1.25 -3 2.05 -3 0.50 0 17.95 3.60 38.80 7.95 20.85 4.40 49.95 10.50 64.65 13.55 14.70 3.05 27.15 5.70 27.60 5.80 0.45 0.15 1.15 1.30 1.60 2.55 0.45 1.25 1.35 3.25 2 4.40 1.60 2.65 7.10 7.85 9.35 8.75 0.95 0.35 1.75 0.70 1.85 0.75 0.05 0.05 -1.35 9.05 -3.10 20.05 -1.80 10.95 -4.50 27.70 -6 37.20 -1.55 9.50 -4.70 29.15 -7.05 43.70 l-4.25 26.50 -3.35 3.60 c-1.90 1.95 -3.65 3.60 -4 3.65 -0.35 0 -0.90 -0.45 -1.20 -1.05z"/>
  <path d="M367.25 500.40 c0.15 -0.65 2.30 -13.85 4.80 -29.40 8.50 -53.45 11.95 -74.70 12.10 -74.80 0.05 -0.05 1.25 -0.65 2.65 -1.35 1.40 -0.70 3.85 -2.45 5.40 -3.90 l2.85 -2.60 11.10 2.30 c6.10 1.30 21.90 4.60 35.05 7.35 13.20 2.75 24.10 5.15 24.25 5.30 0.30 0.30 -97.50 98.20 -98.10 98.20 -0.20 0 -0.25 -0.50 -0.10 -1.10z"/>
  <path d="M122.10 392.45 l-13.65 -13.75 5.90 -2.55 c41.15 -17.75 50.40 -21.65 50.85 -21.50 0.30 0.15 0.85 0.80 1.25 1.50 0.65 1.20 0.25 1.90 -8.20 15.15 -17 26.65 -21.65 34.10 -21.45 34.35 0.15 0.10 -0.05 0.30 -0.40 0.40 -0.35 0.10 -6.80 -6 -14.30 -13.60z"/>
  <path d="M478.95 388.30 c-0.20 -0.20 -27.85 -6.05 -60.05 -12.75 -9.30 -1.95 -17.40 -3.65 -18.05 -3.80 -0.95 -0.25 -1.30 -0.90 -2 -3.85 -0.95 -4 -3.15 -8.05 -6.10 -11.10 l-2 -2.10 2.60 -16.50 c9.15 -57.15 11.50 -71.55 11.85 -72.10 0.15 -0.25 1.15 -0.60 2.20 -0.75 3.05 -0.50 8.10 -3.30 11 -6.15 l2.70 -2.60 39.85 17 c21.90 9.35 51.95 22.20 66.80 28.55 14.85 6.30 27.10 11.60 27.25 11.70 0.40 0.35 -74.25 74.65 -75.05 74.65 -0.45 0 -0.90 -0.10 -1 -0.20z"/>
  <path d="M70.25 340.50 c-13.70 -13.75 -24.70 -25 -24.40 -25 0.30 0 8.05 1.55 17.25 3.50 9.15 1.90 33.40 6.95 53.85 11.25 20.50 4.25 37.65 7.75 38.10 7.75 0.50 0 1 0.20 1.15 0.40 0.15 0.25 -12.75 6 -28.60 12.85 -15.85 6.80 -29.60 12.80 -30.50 13.30 -0.90 0.55 -1.70 0.95 -1.75 0.95 -0.10 0 -11.35 -11.25 -25.10 -25z"/>
  <path d="M344.25 360 c-22.25 -4.80 -46.55 -9.90 -94.50 -19.80 -14.30 -2.95 -26.05 -5.40 -26.05 -5.40 -0.05 -0.05 -0.20 -1.30 -0.40 -2.80 l-0.35 -2.75 8.65 -3.70 c4.75 -2 30.60 -13.10 57.40 -24.65 26.80 -11.55 57.65 -24.85 68.50 -29.50 10.85 -4.70 21.45 -9.25 23.50 -10.15 l3.80 -1.60 1.60 1.35 c1.60 1.30 1.60 1.35 1.10 4.05 -0.30 1.50 -2.20 13.40 -4.30 26.45 -5.55 34.95 -5.45 34.35 -7.40 46.45 -1 6.15 -1.95 11.40 -2.10 11.60 -0.15 0.25 -0.75 0.45 -1.35 0.45 -4.85 0.05 -13.25 5.05 -16.15 9.70 -0.80 1.25 -1.80 2.25 -2.20 2.25 -0.40 0 -4.80 -0.90 -9.75 -1.95z"/>
  <path d="M145.75 318.50 c-18.15 -3.85 -56.95 -12 -80 -16.80 -30.65 -6.40 -30.35 -6.35 -31.50 -5.70 -0.55 0.35 15.50 -15.95 35.70 -36.15 20.20 -20.25 36.80 -36.75 36.90 -36.65 0.25 0.25 24.30 35.30 51.65 75.30 4.20 6.20 8.40 12.25 9.25 13.45 l1.60 2.20 -2.65 3.55 c-1.50 1.95 -2.70 3.70 -2.70 3.90 0 0.70 -2.05 0.35 -18.25 -3.10z"/>
  <path d="M36.80 307.05 c-4.75 -4.75 -6.35 -6.65 -6.15 -7.35 0.20 -0.90 0.25 -0.90 0.30 0.05 0 0.55 2.85 3.80 6.40 7.35 3.50 3.55 6.25 6.40 6.15 6.40 -0.15 0 -3.15 -2.90 -6.70 -6.45z"/>
  <path d="M216.50 312.80 c0 -0.20 9 -14.30 35.65 -56.05 6.35 -9.90 12.55 -19.70 13.85 -21.75 1.30 -2.05 4.20 -6.55 6.40 -9.95 l4.05 -6.20 3.55 0.10 c8 0.25 14.65 -2.50 20.60 -8.45 l3.85 -3.90 36.40 15.55 c20 8.55 36.45 15.55 36.50 15.60 0.05 0 -0.05 1.40 -0.20 3.10 l-0.30 3.05 -10.55 4.50 c-5.80 2.50 -18.40 7.95 -28.05 12.10 -9.60 4.15 -22.90 9.90 -29.50 12.75 -48.45 20.85 -66.95 28.85 -70 30.25 -4.25 1.95 -21.75 9.50 -22.05 9.50 -0.10 0 -0.20 -0.10 -0.20 -0.20z"/>
  <path d="M152.90 259.60 c-17.50 -25.50 -32.15 -47 -32.65 -47.75 l-0.90 -1.45 29.60 -29.55 c16.30 -16.30 29.55 -29.30 29.45 -28.95 -0.10 0.45 12.40 6 37.10 16.60 20.50 8.75 37.55 16.10 37.90 16.35 0.50 0.30 0.50 1.05 0.05 3.50 -1 5.60 0.80 12.65 4.80 18.65 1.30 1.95 2.25 3.80 2.10 4.15 -0.15 0.35 -4.90 7.95 -10.60 16.90 -5.70 8.90 -15.45 24.20 -21.70 33.95 -6.20 9.75 -15.05 23.55 -19.60 30.75 l-8.35 13 -2.65 -0.25 c-4.10 -0.35 -8.45 -0.30 -10.75 0.10 l-2.10 0.40 -31.70 -46.40z"/>
  <path d="M537 287.20 c-16.90 -7.30 -48.05 -20.70 -69.25 -29.75 -21.15 -9.10 -38.55 -16.60 -38.70 -16.70 -0.10 -0.15 0.35 -0.45 1 -0.70 1.45 -0.50 25.85 -11.05 42.65 -18.35 6.60 -2.85 12.20 -5.20 12.50 -5.20 0.85 0 83.90 83.25 83.50 83.65 -0.20 0.20 -0.50 0.35 -0.65 0.30 -0.15 0 -14.15 -6 -31.05 -13.25z"/>
  <path d="M417.60 223.70 c-0.95 -0.95 -2.45 -2.15 -3.45 -2.60 -1.70 -0.80 -1.70 -0.90 -1.40 -3.10 1.10 -7.60 9.85 -61.95 10.15 -62.90 0.30 -1 3 1.55 24.80 23.35 l24.50 24.50 -1.50 0.55 c-1.60 0.60 -31.40 13.45 -43.45 18.70 -4.10 1.80 -7.60 3.30 -7.75 3.25 -0.15 0 -1 -0.80 -1.90 -1.75z"/>
  <path d="M365.50 213.70 c-11.15 -4.80 -28.50 -12.25 -38.60 -16.55 l-18.35 -7.80 -0.30 -2.05 c-0.45 -3.05 -1.70 -6.75 -3.15 -9.35 l-1.25 -2.25 7.65 -12 c14.20 -22.20 21.35 -33.40 33.65 -52.70 6.75 -10.60 12.60 -19.70 13 -20.25 0.75 -0.95 1.85 0.05 25.15 23.35 l24.40 24.35 -0.65 4.40 c-0.30 2.40 -3.20 20.35 -6.35 39.80 -3.15 19.50 -5.70 35.50 -5.70 35.60 0 0.10 -0.85 0.45 -1.85 0.75 -1.05 0.35 -2.95 1.25 -4.30 2.05 -1.30 0.80 -2.55 1.45 -2.75 1.40 -0.20 0 -9.45 -3.95 -20.60 -8.75z"/>
  <path d="M227.20 154.45 c-19.75 -8.45 -36.15 -15.25 -36.45 -15.10 -0.25 0.15 24.10 -24.35 54.10 -54.40 l54.65 -54.70 23.35 23.35 c18.45 18.45 23.30 23.55 22.90 24.15 -0.30 0.40 -3.35 5.15 -6.80 10.60 -30.70 48 -29.45 46.10 -39.70 62.15 -4.60 7.30 -8.65 13.55 -8.95 13.90 -0.50 0.50 -1.45 0.45 -4.80 -0.25 -3.50 -0.70 -4.80 -0.75 -8 -0.25 -4.60 0.65 -8.40 2.05 -11.80 4.25 l-2.55 1.70 -35.95 -15.40z"/>
 </g>
</svg>
