<svg width="82" height="70" viewBox="0 0 256 218" preserveAspectRatio="xMidYMid meet" xmlns="http://www.w3.org/2000/svg"><title>Zod</title>
  <defs>
    <linearGradient id="lg0" gradientUnits="userSpaceOnUse" x1="54.6875%" y1="36.238533%" x2="54.6875%" y2="57.33945%">
      <stop offset="0%" style="stop-color:rgb(212,231,255);"></stop>
      <stop offset="100%" style="stop-color:rgb(167,197,254);"></stop>
    </linearGradient>
    <linearGradient id="lg1" gradientUnits="userSpaceOnUse" x1="29.6875%" y1="69.72477%" x2="70.3125%" y2="69.72477%">
      <stop offset="0%" style="stop-color:rgb(255,255,255);"></stop>
      <stop offset="52%" style="stop-color:rgb(252,253,255);"></stop>
      <stop offset="100%" style="stop-color:rgb(171,200,255);"></stop>
    </linearGradient>
  </defs>
  <g fill="#3c75ff">
    <path d="M119.5 199.1 c-2.6 -1.6 -71.4 -60.7 -75.5 -64.8 -1.3 -1.4 -0.9 -1.5 3.7 -1 2.8 0.3 6.1 1.2 7.2 1.9 1.6 1 2.9 1 6.6 0 2.5 -0.7 7.8 -1.2 11.8 -1.2 8.3 0 4.3 -2.7 33 22.3 20.7 18.1 20.9 18.2 23.8 16.6 1.8 -0.9 30.6 -25.8 36.7 -31.7 6.4 -6.1 7.7 -6.5 17.6 -5.7 10.9 0.8 18.6 -0.1 18.6 -2.1 0 -0.9 1.2 -1.4 3.4 -1.4 1.9 0 3.6 -0.5 3.8 -1.1 0.2 -0.6 1.8 -0.9 3.6 -0.7 3 0.3 1.4 1.9 -35.2 34.3 -21.2 18.7 -39.7 34.5 -41.3 35.2 -4.5 1.9 -14.3 1.6 -17.8 -0.6z"/>
  </g>
  <g fill="#4088ff">
    <path d="M165 145.1 c0 -2.9 0.2 -3.1 3.5 -3.1 3.2 0 3.5 -0.3 3.5 -2.7 0 -1.9 1 -3.7 3.2 -5.5 l3.3 -2.7 -15.2 -0.1 -15.3 0 0 -3.3 c0 -3.2 0.6 -3.7 29 -21.6 27.7 -17.5 31.8 -20.7 33.4 -25.8 0.7 -2.1 1.3 -2.3 8.1 -2.3 4.1 0 7.7 -0.5 8 -1 0.3 -0.5 1.6 -1 2.8 -1 1.9 0 2.7 1.5 6.1 11 3.2 9.1 3.8 12 3.4 16.5 -0.6 7.2 -2.8 10.2 -16.7 22.3 -9.3 8.2 -11.6 9.8 -13.8 9.4 -2.1 -0.4 -2.4 -0.2 -1.9 1.4 0.7 2.4 -0.8 4.9 -2.3 3.9 -0.7 -0.4 -6.9 -1.1 -13.9 -1.5 -13.6 -0.9 -13.9 -0.8 -20.4 5.2 -4.3 4.1 -4.8 4.2 -4.8 0.9z"/>
    <path d="M84.5 143 c-0.3 -0.5 -1.6 -1 -2.8 -1 -1.6 0 -1.8 -0.3 -0.9 -0.9 1 -0.6 0.7 -1.2 -1.3 -2.5 -2 -1.3 -3.9 -1.6 -8.3 -1.1 -3.1 0.3 -8.5 0.8 -11.9 1.1 -4.9 0.5 -6.3 1 -6.4 2.3 -0.1 0.9 -0.4 0.5 -0.8 -0.9 -0.4 -1.5 -1.4 -2.4 -2.4 -2.4 -2.5 0.2 -27.8 -22 -30.7 -26.9 -1.9 -3.2 -2.4 -5.4 -2.4 -9.7 0.2 -9.2 10.4 -33.9 10.4 -25.1 0 1.9 0.6 2.1 6 2.1 5.3 0 6 -0.2 6 -2 0 -2 0.7 -2 54.5 -2 l54.5 0 0 3.5 c0 1.9 -0.4 3.5 -1 3.5 -0.5 0 -1 1.1 -1 2.5 0 2 -0.5 2.5 -2.5 2.5 -1.6 0 -2.5 0.6 -2.5 1.5 0 0.8 -0.9 1.5 -1.9 1.5 -1 0 -2.1 0.7 -2.5 1.5 -0.3 0.8 -1.5 1.5 -2.6 1.5 -1.1 0 -2 0.5 -2 1 0 0.6 -0.5 1 -1.1 1 -0.6 0 -1.7 0.6 -2.4 1.4 -0.8 0.8 -13.2 8.5 -27.5 17.1 l-26 15.8 2.8 3.3 c1.5 1.8 3.3 3.3 4 3.3 0.6 0.1 1.2 0.8 1.2 1.6 0 0.8 0.7 1.5 1.5 1.5 1 0 1.5 1 1.5 3 0 3.1 -0.4 3.7 -1.5 2z"/>
  </g>
  <g fill="#439dff">
    <path d="M124.4 93.5 c1 -0.8 1.5 -1.9 1 -2.6 -0.5 -0.9 -0.1 -1.1 1.5 -0.6 1.7 0.4 2.1 0.2 1.7 -0.9 -0.4 -1.1 0.1 -1.4 2.2 -1.2 2.3 0.3 2.7 -0.1 2.5 -1.9 -0.2 -1.3 0.2 -2.3 0.8 -2.3 0.6 0 1.6 -0.6 2.3 -1.3 1.1 -1.1 0.7 -1.3 -2.3 -1.3 -8.5 -0.2 -24.1 -1.8 -24.1 -2.5 0 -0.5 8 -1 17.8 -1.2 l17.7 -0.2 -19.2 -0.3 c-12.1 -0.1 -19.3 -0.6 -19.3 -1.2 0 -0.6 5.4 -1 14.3 -1 7.9 0 18.5 -0.3 23.5 -0.6 l9.2 -0.7 0 3.4 c0 3.2 -0.5 3.7 -8.1 8.2 -4.5 2.6 -9 4.7 -10 4.7 -1.1 0 -1.9 0.7 -1.9 1.5 0 0.8 -0.7 1.5 -1.5 1.5 -0.8 0 -1.5 0.5 -1.5 1 0 0.6 -1.9 1 -4.2 1 -3.9 -0.1 -4.1 -0.2 -2.4 -1.5z"/>
    <path d="M210 83.8 c0 -3.6 -12 -36 -14.6 -39.5 -1.5 -1.9 -3.9 -3.6 -6.2 -4.3 -2.3 -0.6 -24.9 -1 -62 -1 -62.5 0 -62.2 0 -66.9 5.1 -1.2 1.3 -4.2 8 -6.6 14.9 -2.5 6.9 -4.8 13.3 -5.2 14.3 -0.7 1.6 0.7 1.7 21.4 1.7 14.1 0 22.1 0.4 22.1 1 0 0.6 -9.2 1.1 -25.2 1.2 l-25.3 0.3 20.8 0.2 c11.4 0.2 20.7 0.7 20.7 1.2 0 0.8 -58.9 3.2 -60.2 2.4 -0.4 -0.2 -0.4 -1.2 0.1 -2.1 0.5 -0.9 4.6 -12.2 9.2 -25 4.5 -12.9 9.5 -25.3 11 -27.7 1.7 -2.7 4.3 -5 7.1 -6.4 4.4 -2.1 4.8 -2.1 77.9 -2.1 l73.4 0 3.9 2.3 c6.7 3.8 8.9 7.9 18 33.4 8.4 23.3 8.7 24.2 6.9 26 -1.5 1.5 -3.1 1.7 -9 1.5 -7 -0.3 -7.3 -0.2 -7.9 2.3 -0.8 3.1 -3.4 3.3 -3.4 0.3z"/>
  </g>
  <g fill="#b5d0ff">
    <path fill="url(#lg1)" d="M157 152.9 c0 -1.3 0.7 -5.1 1.5 -8.4 1.7 -7 1.9 -12.5 0.5 -12.5 -0.5 0 -1 -0.9 -1 -2 0 -1.9 0.7 -2 14.5 -2 8 0 14.5 0.2 14.5 0.4 0 0.4 -24.7 22.6 -28.3 25.5 -1.5 1.2 -1.7 1.1 -1.7 -1z"/>
    <path fill="url(#lg0)" d="M69.3 129.7 c-0.9 -0.9 -1.4 -1.9 -1.2 -2 0.2 -0.2 13.6 -8.4 29.8 -18.1 21.1 -12.8 29.6 -17.5 30.4 -16.7 1.8 1.8 58.1 1.4 63.2 -0.4 2.2 -0.8 5.3 -1.5 6.8 -1.5 2 0 3 -0.6 3.4 -2 0.4 -1.6 1.4 -2 4.9 -2 8.4 0 7.7 0.5 -28.9 23.6 -25.1 15.8 -26.6 16.9 -23.6 17.4 l3.2 0.5 -2.4 1.2 c-1.8 1 -13 1.4 -43.2 1.5 -37.9 0.3 -41 0.2 -42.4 -1.5z"/>
  </g>
  <g fill="#d1e3ff">
    <path fill="url(#lg1)" d="M138.3 170.3 c-1 -0.4 -1.3 -5.1 -1.3 -19.2 0 -24 -0.5 -23.1 13.3 -23.1 5.6 0 10.8 0.4 11.6 0.9 1.1 0.7 1.2 2.6 0.7 9.2 -0.4 4.6 -0.7 9.4 -0.8 10.7 0 1.5 -2.7 4.6 -8.2 9.6 -11.6 10.6 -13.9 12.4 -15.3 11.9z"/>
    <path fill="url(#lg0)" d="M124 96.1 c-2.3 -0.6 -1.6 -1.3 7.3 -6.6 5.3 -3.3 12.1 -7.5 15 -9.2 l5.2 -3.3 -6.2 0 c-5.6 0 -6.3 -0.2 -6.3 -2 0 -2 0.7 -2 34.5 -2 22.3 0 34.5 -0.4 34.5 -1 0 -2.3 2.2 -0.8 3.6 2.5 3.1 7.4 0.2 17 -4.8 15.7 -1.5 -0.4 -1.9 -0.2 -1.4 0.7 1 1.6 -2.4 4.2 -4.6 3.5 -0.9 -0.3 -3.8 0.2 -6.3 1 -3.8 1.3 -10 1.6 -36.3 1.5 -17.4 -0.1 -32.8 -0.4 -34.2 -0.8z"/>
  </g>
  <g fill="#fcfdff">
    <path fill="url(#lg1)" d="M121.4 174.8 c-2.9 -2.3 -49.8 -43.1 -52.2 -45.5 -1.1 -1.1 5.7 -1.3 37.8 -1.3 l39.2 0 -2.9 3.3 -2.9 3.4 -0.3 15.8 c-0.2 12.1 0.1 16 1.1 16.6 0.9 0.6 0.5 1.6 -1.7 3.9 -6 6.4 -12.9 7.8 -18.1 3.8z"/>
    <path d="M44 75.9 c0 -3.1 11.3 -32.6 13.3 -34.8 4.7 -5.1 4.1 -5.1 69.9 -5.1 39.2 0 62.6 0.4 65 1 5.5 1.6 7.9 5.5 14.1 23 3 8.5 5.4 15.6 5.3 15.7 -0.1 0.1 -37.8 0.5 -83.9 0.9 -71.6 0.6 -83.7 0.5 -83.7 -0.7z"/>
  </g>
</svg>
